<svg width="451" height="238" viewBox="0 0 451 238" fill="none" xmlns="http://www.w3.org/2000/svg">
<path d="M448.339 57.5495L429.099 96.6585L359.224 72.2917L339.347 3.05344H398.969L448.339 57.5495Z" fill="white"/>
<path d="M428.309 98.9245L358.426 74.5664C357.688 74.3118 357.119 73.7091 356.907 72.9622L337.03 3.72396C336.818 3.00255 336.97 2.21325 337.42 1.61066C337.87 1.00807 338.583 0.651505 339.338 0.651505H398.961C399.64 0.651505 400.285 0.94001 400.743 1.44075L450.104 55.9371C450.766 56.667 450.911 57.7278 450.478 58.6105L431.246 97.7194C430.83 98.5596 429.981 99.0602 429.09 99.0602C428.836 99.0602 428.572 99.0179 428.309 98.9245ZM397.908 5.45517H342.546L361.193 70.433L427.885 93.688L445.462 57.9569L397.908 5.45517Z" fill="black"/>
<path d="M327.168 112.046L301.519 54.9864L339.347 3.05344L359.224 72.2917L327.168 112.046Z" fill="white"/>
<path d="M326.862 114.431C326.03 114.32 325.318 113.794 324.978 113.03L299.33 55.9709C298.973 55.1816 299.075 54.2651 299.576 53.5692L337.403 1.63601C337.946 0.88914 338.863 0.524299 339.763 0.685555C340.671 0.846812 341.401 1.50882 341.655 2.39149L361.532 71.6299C361.744 72.3853 361.583 73.1914 361.091 73.8025L329.035 113.548C328.576 114.117 327.889 114.439 327.168 114.439C327.066 114.448 326.964 114.439 326.862 114.431ZM338.396 8.44274L304.286 55.2666L327.753 107.48L356.567 71.7487L338.396 8.44274Z" fill="black"/>
<path d="M352.595 125.719L337.098 99.7308L327.168 112.046L334.857 127.857L352.595 125.719Z" fill="white"/>
<path d="M332.701 128.91L325.012 113.098C324.604 112.258 324.715 111.265 325.3 110.535L335.23 98.2199C335.723 97.6089 336.487 97.2778 337.267 97.3287C338.048 97.3881 338.761 97.8211 339.16 98.4916L354.658 124.479C355.074 125.175 355.107 126.041 354.751 126.771C354.394 127.501 353.69 128.001 352.884 128.095L335.146 130.234C335.052 130.242 334.95 130.251 334.857 130.251C333.949 130.259 333.1 129.741 332.701 128.91ZM336.801 103.923L329.994 112.36L336.274 125.26L348.64 123.766L336.801 103.923Z" fill="black"/>
<path d="M250.876 68.4472L301.519 54.9864L334.857 127.857L320.115 130.955L277.798 179.68L275.235 129.996L250.876 68.4472Z" fill="white"/>
<path d="M277.017 181.955C276.092 181.632 275.447 180.783 275.396 179.807L272.85 130.514L248.636 69.3382C248.381 68.7016 248.415 67.9804 248.721 67.3693C249.026 66.7582 249.586 66.3082 250.248 66.13L300.9 52.6695C302.029 52.3639 303.217 52.9241 303.701 53.9935L337.038 126.864C337.344 127.526 337.327 128.299 336.996 128.944C336.665 129.597 336.062 130.064 335.341 130.217L321.388 133.153L279.605 181.267C279.139 181.802 278.477 182.099 277.789 182.099C277.535 182.082 277.272 182.04 277.017 181.955ZM300.178 57.8297L254.102 70.0767L277.467 129.114C277.56 129.36 277.62 129.614 277.637 129.877L279.894 173.612L318.299 129.385C318.646 128.986 319.105 128.715 319.623 128.604L331.428 126.126L300.178 57.8297Z" fill="black"/>
<path d="M281.965 215.581L301.519 179.68L304.159 149.33L277.798 179.68L267.859 192.504L281.965 215.581Z" fill="white"/>
<path d="M279.92 216.837L265.814 193.76C265.296 192.911 265.356 191.825 265.967 191.036L275.905 178.212C275.931 178.178 275.964 178.144 275.99 178.11L302.343 147.76C303.022 146.97 304.133 146.716 305.092 147.123C306.052 147.531 306.637 148.507 306.552 149.542L303.921 179.892C303.896 180.223 303.794 180.546 303.641 180.834L284.087 216.735C283.679 217.49 282.89 217.966 282.033 217.991C282.016 217.991 281.99 217.991 281.973 217.991C281.133 217.983 280.352 217.55 279.92 216.837ZM301.121 156.493L279.656 181.208L270.779 192.665L281.846 210.777L299.168 178.976L301.121 156.493Z" fill="black"/>
<path d="M310.499 215.581H281.965L292.863 195.568L310.499 215.581Z" fill="white"/>
<path d="M279.903 216.811C279.47 216.081 279.453 215.182 279.86 214.435L290.758 194.422C291.131 193.735 291.819 193.268 292.599 193.183C293.38 193.098 294.152 193.395 294.67 193.981L312.298 213.994C312.926 214.707 313.071 215.708 312.689 216.574C312.298 217.431 311.441 217.991 310.499 217.991H281.973C281.116 217.983 280.335 217.541 279.903 216.811ZM293.338 199.735L286.022 213.17H305.186L293.338 199.735Z" fill="black"/>
<path d="M266.264 234.813L244.146 215.581L220.739 232.895L266.264 234.813Z" fill="white"/>
<path d="M266.162 237.214L220.645 235.288C219.627 235.245 218.744 234.566 218.447 233.59C218.15 232.614 218.498 231.562 219.313 230.951L242.712 213.637C243.62 212.967 244.868 213.018 245.716 213.756L267.834 232.988C268.606 233.658 268.869 234.745 268.487 235.695C268.122 236.612 267.231 237.206 266.255 237.206C266.23 237.223 266.196 237.214 266.162 237.214ZM227.647 230.781L259.508 232.131L244.027 218.67L227.647 230.781Z" fill="black"/>
<path d="M199.589 125.506L220.739 173.272V232.895L244.146 215.581L267.859 190.9L277.798 179.68L275.235 129.996L250.876 68.4472L199.589 125.506Z" fill="white"/>
<path d="M219.661 235.042C218.854 234.634 218.337 233.803 218.337 232.895V173.781L197.39 126.482C197.008 125.617 197.17 124.607 197.798 123.902L249.086 66.843C249.646 66.2235 250.478 65.935 251.301 66.0878C252.124 66.2321 252.803 66.7922 253.108 67.573L277.467 129.122C277.56 129.368 277.62 129.623 277.636 129.886L280.2 179.57C280.234 180.198 280.013 180.817 279.597 181.284L269.658 192.504C269.633 192.53 269.616 192.555 269.591 192.572L245.869 217.253C245.775 217.346 245.674 217.439 245.563 217.516L222.164 234.83C221.74 235.144 221.239 235.305 220.73 235.305C220.373 235.296 220 235.212 219.661 235.042ZM266.094 189.271L275.345 178.823L272.85 130.514L250.062 72.9453L202.406 125.956L222.937 172.296C223.072 172.602 223.14 172.933 223.14 173.272V228.125L242.542 213.773L266.094 189.271Z" fill="black"/>
<path d="M165.283 177.439L153.749 105.315L250.877 68.4471L199.589 127.857L220.739 173.272L165.283 177.439Z" fill="white"/>
<path d="M162.915 177.813L151.373 105.689C151.195 104.56 151.831 103.465 152.892 103.058L250.019 66.1979C251.046 65.8075 252.209 66.164 252.845 67.0637C253.474 67.9633 253.414 69.1769 252.693 70.0172L202.423 128.248L222.92 172.254C223.251 172.967 223.217 173.807 222.818 174.486C222.419 175.165 221.714 175.606 220.925 175.666L165.47 179.833C165.41 179.841 165.351 179.841 165.292 179.841C164.112 179.841 163.102 178.993 162.915 177.813ZM197.407 128.876C197.008 128.019 197.153 127.009 197.764 126.287L242.848 74.0656L156.431 106.868L167.312 174.876L217.097 171.133L197.407 128.876Z" fill="black"/>
<path d="M91.5553 179.68L81.3027 147.946L154.53 110.195L164.918 175.148L91.5553 179.68Z" fill="white"/>
<path d="M89.2721 180.418L79.0112 148.685C78.6463 147.564 79.1469 146.351 80.1993 145.808L153.427 108.065C154.114 107.709 154.929 107.709 155.616 108.057C156.304 108.405 156.788 109.058 156.907 109.822L167.295 174.774C167.405 175.445 167.218 176.124 166.794 176.659C166.37 177.193 165.742 177.516 165.063 177.558L91.6995 182.09C91.6486 182.09 91.5977 182.099 91.5468 182.099C90.5198 182.082 89.5946 181.42 89.2721 180.418ZM152.68 113.854L84.2138 149.143L93.2697 177.159L162.126 172.907L152.68 113.854Z" fill="black"/>
<path d="M2.76237 191.859L91.5553 179.68L82.1854 150.671L2.76237 191.859Z" fill="white"/>
<path d="M0.47087 192.589C0.114409 191.477 0.615069 190.264 1.65899 189.729L81.0735 148.541C81.7016 148.218 82.4401 148.184 83.0936 148.447C83.7471 148.719 84.2477 149.262 84.4684 149.933L93.8468 178.942C94.0674 179.621 93.974 180.359 93.5921 180.962C93.2102 181.564 92.5906 181.972 91.8862 182.065L3.09348 194.244C2.98315 194.261 2.8727 194.27 2.76237 194.27C1.72693 194.261 0.793383 193.599 0.47087 192.589ZM80.7681 154.108L16.2231 187.582L88.3896 177.686L80.7681 154.108Z" fill="black"/>
</svg>
