<svg width="528" height="300" viewBox="0 0 528 300" fill="none" xmlns="http://www.w3.org/2000/svg">
<path d="M7.96075 133.706L141.099 2.87561L160.696 5.75288L100.76 93.3575L7.96075 133.706Z" fill="white"/>
<path d="M7.96916 135.861C7.26472 135.861 6.58586 135.522 6.17848 134.911C5.59286 134.045 5.71154 132.891 6.45842 132.161L139.597 1.33086C140.081 0.85558 140.759 0.634955 141.43 0.736801L161.027 3.62256C161.765 3.7329 162.393 4.20818 162.69 4.89564C162.987 5.57461 162.911 6.36389 162.495 6.98345L102.559 94.588C102.33 94.9275 102.007 95.1906 101.634 95.3518L8.84336 135.7C8.54631 135.802 8.25772 135.861 7.96916 135.861ZM141.846 5.16708L17.7974 127.068L99.3252 91.626L156.962 7.39082L141.846 5.16708Z" fill="black"/>
<path d="M125.525 98.8488L100.76 93.3576L160.696 5.75299V26.6653L125.525 98.8488Z" fill="white"/>
<path d="M125.525 101.004C125.372 101.004 125.211 100.987 125.058 100.953L100.293 95.4623C99.5882 95.3095 99.0111 94.8172 98.7479 94.1467C98.4848 93.4762 98.5697 92.721 98.9771 92.1354L158.914 4.53057C159.448 3.74975 160.433 3.40178 161.332 3.69035C162.241 3.97042 162.852 4.8108 162.852 5.75288V26.6567C162.852 26.9877 162.775 27.3103 162.631 27.6074L127.46 99.7906C127.104 100.546 126.34 101.004 125.525 101.004ZM104.35 91.94L124.328 96.3705L158.532 26.1644V12.7378L104.35 91.94Z" fill="black"/>
<path d="M140.522 102.295L100.76 93.3576L7.96082 133.706L140.522 102.295Z" fill="white"/>
<path d="M7.96077 135.861C7.05264 135.861 6.21249 135.284 5.91543 134.384C5.55897 133.324 6.07661 132.169 7.10356 131.72L99.8939 91.3715C100.318 91.1848 100.785 91.1425 101.226 91.2443L140.997 100.181C141.982 100.402 142.678 101.268 142.686 102.278C142.695 103.288 141.999 104.162 141.023 104.391L8.46159 135.802C8.29184 135.844 8.13051 135.861 7.96077 135.861ZM100.972 95.6236L31.1053 125.999L130.915 102.345L100.972 95.6236Z" fill="black"/>
<path d="M156.664 125.346L140.522 102.295L7.96063 133.706L137.933 138.603L156.664 125.346Z" fill="white"/>
<path d="M137.933 140.758C137.908 140.758 137.882 140.758 137.848 140.758L7.88444 135.861C6.80657 135.819 5.92375 134.987 5.81342 133.909C5.71157 132.831 6.41617 131.847 7.46858 131.592L140.03 100.181C140.895 99.9774 141.795 100.317 142.296 101.047L158.43 124.098C159.109 125.074 158.88 126.415 157.904 127.102L139.173 140.359C138.816 140.622 138.375 140.758 137.933 140.758ZM23.9251 132.144L137.28 136.413L153.66 124.819L139.597 104.73L23.9251 132.144Z" fill="black"/>
<path d="M19.2062 178.365L68.7799 135.997L137.933 138.603L19.2062 178.365Z" fill="white"/>
<path d="M19.2061 180.529C18.4423 180.529 17.7209 180.122 17.322 179.434C16.8128 178.535 17.008 177.398 17.7973 176.727L67.3708 134.351C67.7867 133.994 68.3129 133.816 68.8561 133.833L138.01 136.439C139.053 136.481 139.919 137.253 140.064 138.289C140.208 139.324 139.597 140.317 138.612 140.648L19.8851 180.419C19.6645 180.495 19.4353 180.529 19.2061 180.529ZM69.5436 138.187L29.0598 172.789L126.009 140.317L69.5436 138.187Z" fill="black"/>
<path d="M199.601 193.931V161.365L156.665 125.346L146.981 132.195L199.601 193.931Z" fill="white"/>
<path d="M199.601 196.095C198.982 196.095 198.371 195.823 197.955 195.339L145.343 133.604C144.952 133.145 144.766 132.534 144.842 131.932C144.918 131.329 145.241 130.786 145.742 130.438L155.417 123.589C156.215 123.02 157.301 123.063 158.057 123.699L200.993 159.719C201.485 160.126 201.765 160.737 201.765 161.374V193.939C201.765 194.847 201.197 195.653 200.348 195.967C200.102 196.044 199.847 196.095 199.601 196.095ZM150.163 132.594L197.437 188.066V162.375L156.546 128.07L150.163 132.594Z" fill="black"/>
<path d="M154.356 196.808L199.601 209.199V193.931L146.981 132.195L137.933 138.603L124.014 143.262L154.356 196.808Z" fill="white"/>
<path d="M199.601 211.363C199.414 211.363 199.219 211.338 199.033 211.287L153.787 198.895C153.236 198.743 152.76 198.378 152.48 197.877L122.139 144.323C121.816 143.763 121.774 143.084 122.003 142.481C122.232 141.879 122.724 141.412 123.335 141.208L136.949 136.651L145.742 130.429C146.658 129.784 147.906 129.937 148.636 130.794L201.248 192.53C201.579 192.92 201.765 193.421 201.765 193.93V209.207C201.765 209.878 201.451 210.514 200.917 210.922C200.526 211.21 200.068 211.363 199.601 211.363ZM155.79 194.966L197.437 206.373V194.728L146.616 135.097L139.172 140.368C139.003 140.487 138.808 140.589 138.612 140.656L127.188 144.484L155.79 194.966Z" fill="black"/>
<path d="M2.19794 223.033L143.908 178.365L154.356 196.808L2.19794 223.033Z" fill="white"/>
<path d="M2.19785 225.197C1.22183 225.197 0.339188 224.527 0.101547 223.542C-0.170042 222.439 0.466463 221.31 1.55282 220.971L143.263 176.303C144.239 175.997 145.292 176.413 145.793 177.296L156.24 195.738C156.588 196.349 156.614 197.096 156.317 197.733C156.019 198.369 155.425 198.819 154.73 198.938L2.57145 225.163C2.44414 225.189 2.32516 225.197 2.19785 225.197ZM142.89 180.954L33.4137 215.462L150.961 195.204L142.89 180.954Z" fill="black"/>
<path d="M161.808 237.444L142.873 198.794L2.19794 223.033L161.808 237.444Z" fill="white"/>
<path d="M161.808 239.608C161.74 239.608 161.681 239.609 161.613 239.6L2.00279 225.189C0.924915 225.087 0.0848342 224.204 0.0339111 223.126C-0.00852473 222.04 0.755205 221.09 1.82459 220.911L142.5 196.663C143.442 196.502 144.384 196.977 144.808 197.843L163.743 236.494C164.082 237.198 164.023 238.03 163.582 238.667C163.183 239.261 162.512 239.608 161.808 239.608ZM18.8159 222.363L158.175 234.941L141.642 201.187L18.8159 222.363Z" fill="black"/>
<path d="M177.984 251.083L161.808 237.444L142.873 198.794L154.356 196.808L195.086 218.119L177.984 251.083Z" fill="white"/>
<path d="M177.984 253.247C177.475 253.247 176.983 253.069 176.593 252.738L160.416 239.099C160.187 238.904 160 238.666 159.864 238.395L140.93 199.744C140.632 199.133 140.632 198.42 140.946 197.809C141.252 197.206 141.829 196.782 142.508 196.663L153.991 194.686C154.458 194.609 154.942 194.677 155.358 194.898L196.088 216.201C197.14 216.752 197.556 218.051 197.004 219.112L179.903 252.076C179.597 252.662 179.045 253.069 178.4 253.205C178.265 253.23 178.129 253.247 177.984 253.247ZM163.548 236.086L177.314 247.688L192.175 219.035L154 199.065L146.081 200.432L163.548 236.086Z" fill="black"/>
<path d="M272.489 246.67L177.984 251.083L195.086 218.119L272.489 246.67Z" fill="white"/>
<path d="M177.984 253.247C177.254 253.247 176.567 252.874 176.168 252.254C175.752 251.601 175.71 250.778 176.066 250.09L193.168 217.126C193.669 216.158 194.814 215.717 195.833 216.09L273.236 244.641C274.203 244.998 274.78 245.982 274.628 247.001C274.466 248.019 273.618 248.783 272.591 248.834L178.095 253.247C178.052 253.247 178.018 253.247 177.984 253.247ZM196.121 220.801L181.625 248.749L261.727 245.006L196.121 220.801Z" fill="black"/>
<path d="M416.856 260.776L305.334 263.525L195.086 218.119L154.356 196.808L416.856 260.776Z" fill="white"/>
<path d="M305.334 265.69C305.054 265.69 304.774 265.639 304.511 265.528L194.263 220.122C194.203 220.096 194.144 220.071 194.084 220.037L153.354 198.734C152.387 198.225 151.946 197.079 152.336 196.061C152.718 195.042 153.813 194.465 154.874 194.72L417.374 258.688C418.426 258.942 419.13 259.944 419.012 261.022C418.893 262.1 418.002 262.923 416.915 262.948L305.402 265.698C305.368 265.69 305.351 265.69 305.334 265.69ZM196.003 216.158L305.742 261.361L400.509 259.027L171.05 203.114L196.003 216.158Z" fill="black"/>
<path d="M346.828 204.31L405.619 241.917L416.856 260.776L199.601 209.199V193.931L346.828 204.31Z" fill="white"/>
<path d="M416.856 262.94C416.686 262.94 416.525 262.923 416.355 262.88L199.1 211.304C198.124 211.075 197.437 210.2 197.437 209.199V193.922C197.437 193.319 197.683 192.751 198.124 192.343C198.566 191.936 199.151 191.724 199.754 191.766L346.989 202.146C347.346 202.171 347.694 202.29 347.999 202.477L406.782 240.084C407.062 240.262 407.299 240.508 407.477 240.797L418.714 259.664C419.156 260.41 419.113 261.353 418.596 262.049C418.18 262.617 417.535 262.94 416.856 262.94ZM201.757 207.493L412.375 257.491L404.015 243.453L346.124 206.424L201.757 196.247V207.493Z" fill="black"/>
<path d="M368.182 297.381L374.709 261.819L343.781 262.583L368.182 297.381Z" fill="white"/>
<path d="M368.182 299.545C367.486 299.545 366.824 299.205 366.417 298.628L342.016 263.822C341.558 263.169 341.498 262.32 341.855 261.607C342.211 260.894 342.933 260.436 343.73 260.419L374.658 259.655C375.303 259.647 375.931 259.918 376.355 260.41C376.779 260.903 376.958 261.565 376.839 262.201L370.312 297.771C370.151 298.628 369.497 299.307 368.649 299.494C368.487 299.528 368.335 299.545 368.182 299.545ZM347.864 264.637L366.985 291.915L372.103 264.043L347.864 264.637Z" fill="black"/>
<path d="M448.097 213.816L405.619 241.917L380.157 225.63L448.097 213.816Z" fill="white"/>
<path d="M405.61 244.073C405.203 244.073 404.804 243.962 404.448 243.733L378.986 227.446C378.239 226.963 377.857 226.071 378.036 225.197C378.214 224.323 378.91 223.644 379.784 223.491L447.732 211.677C448.742 211.499 449.735 212.059 450.109 213.01C450.49 213.96 450.143 215.047 449.294 215.607L406.807 243.708C406.442 243.954 406.026 244.073 405.61 244.073ZM386.005 226.801L405.593 239.337L438.286 217.712L386.005 226.801Z" fill="black"/>
<path d="M279.398 110.086L525.347 41.7894L327.809 120.449L233.94 196.349L199.601 193.931V174.919L279.398 110.086Z" fill="white"/>
<path d="M233.94 198.514C233.889 198.514 233.838 198.514 233.788 198.505L199.448 196.086C198.32 196.01 197.437 195.068 197.437 193.931V174.919C197.437 174.266 197.734 173.655 198.235 173.239L278.04 108.405C278.269 108.219 278.54 108.083 278.821 107.998L524.762 39.7016C525.865 39.3961 527.019 40.0071 527.384 41.0934C527.749 42.1798 527.206 43.3679 526.137 43.7923L328.912 122.324L235.29 198.021C234.908 198.344 234.432 198.514 233.94 198.514ZM201.757 191.919L233.236 194.134L326.45 118.768C326.62 118.632 326.807 118.522 327.011 118.437L487.427 54.5627L280.416 112.046L201.765 175.946V191.919H201.757Z" fill="black"/>
<path d="M395.239 143.797L525.348 41.7895L327.809 120.449L395.239 143.797Z" fill="white"/>
<path d="M395.239 145.961C395.001 145.961 394.764 145.918 394.535 145.842L327.104 122.494C326.247 122.197 325.67 121.408 325.653 120.5C325.636 119.591 326.179 118.777 327.011 118.446L524.541 39.7864C525.543 39.3875 526.68 39.7865 527.215 40.7201C527.749 41.6537 527.52 42.8334 526.672 43.4954L396.572 145.503C396.19 145.8 395.714 145.961 395.239 145.961ZM334.013 120.304L394.84 141.369L512.201 49.3515L334.013 120.304Z" fill="black"/>
<path d="M393.94 178.365L395.239 143.797L327.808 120.448L250.38 183.058L393.94 178.365Z" fill="white"/>
<path d="M250.38 185.214C249.48 185.214 248.674 184.654 248.351 183.805C248.029 182.931 248.292 181.955 249.022 181.37L326.45 118.76C327.028 118.293 327.809 118.157 328.513 118.395L395.944 141.743C396.843 142.057 397.429 142.914 397.395 143.865L396.096 178.433C396.054 179.57 395.137 180.478 394.008 180.512L250.448 185.197C250.431 185.214 250.406 185.214 250.38 185.214ZM328.241 122.884L256.754 180.691L391.861 176.277L393.024 145.316L328.241 122.884Z" fill="black"/>
<path d="M372.688 220.852L393.94 178.365L250.38 183.058L233.94 196.349L346.828 204.31L372.688 220.852Z" fill="white"/>
<path d="M372.688 223.016C372.281 223.016 371.874 222.897 371.526 222.676L346.132 206.432L233.787 198.513C232.905 198.454 232.141 197.851 231.878 197.003C231.615 196.154 231.886 195.229 232.582 194.677L249.022 181.378C249.387 181.081 249.837 180.911 250.312 180.903L393.872 176.218C394.628 176.192 395.349 176.574 395.765 177.211C396.173 177.856 396.215 178.662 395.876 179.341L374.624 221.828C374.352 222.379 373.86 222.778 373.266 222.948C373.079 222.99 372.884 223.016 372.688 223.016ZM239.567 194.584L346.989 202.154C347.346 202.18 347.694 202.299 347.999 202.494L371.831 217.746L390.384 180.656L251.169 185.197L239.567 194.584Z" fill="black"/>
</svg>
