<svg width="492" height="260" viewBox="0 0 492 260" fill="none" xmlns="http://www.w3.org/2000/svg">
<path d="M1.8916 11.6472L6.85668 29.7079H35.314L60.606 45.9692L97.6438 25.6425L47.5102 11.6472H1.8916Z" fill="white"/>
<path d="M60.6062 47.6666C60.2837 47.6666 59.9696 47.5734 59.6895 47.3952L34.8136 31.4053H6.85685C6.093 31.4053 5.42258 30.8961 5.22738 30.1577L0.262299 12.0885C0.118017 11.5792 0.228218 11.0361 0.55073 10.6117C0.873243 10.1874 1.36537 9.94119 1.90006 9.94119H47.5186C47.6714 9.94119 47.8242 9.95822 47.977 10.0007L98.111 24.0045C98.773 24.1912 99.2565 24.7598 99.3414 25.4388C99.4177 26.1262 99.0782 26.7882 98.4757 27.1192L61.4379 47.446C61.1663 47.5902 60.8863 47.6666 60.6062 47.6666ZM8.14692 28.0189H35.3142C35.6367 28.0189 35.9593 28.1123 36.2308 28.2906L60.6737 44.0088L93.1882 26.1688L47.2812 13.3446H4.11551L8.14692 28.0189Z" fill="black"/>
<path d="M163.131 36.4806C162.681 34.6728 97.6437 25.6424 97.6437 25.6424L47.5102 11.6386H1.8916L94.9364 2.60834L163.131 36.4806Z" fill="white"/>
<path d="M163.131 38.1781C162.876 38.1781 162.613 38.1187 162.375 37.9999L161.501 37.567C155.713 35.7847 119.795 30.4292 97.4059 27.3229C97.3296 27.3144 97.253 27.2974 97.1851 27.2805L47.2723 13.3446H1.88253C0.982894 13.3446 0.236238 12.6317 0.193802 11.7321C0.151367 10.8325 0.821688 10.0516 1.72133 9.9667L94.7665 0.936438C95.0806 0.902489 95.4027 0.961858 95.6828 1.10614L162.833 34.4608C163.996 34.8512 164.573 35.284 164.777 36.0902C164.938 36.7353 164.709 37.4058 164.191 37.8217C163.886 38.0508 163.512 38.1781 163.131 38.1781ZM97.9915 23.979C99.4683 24.1827 115.042 26.3555 130.48 28.7064C138.305 29.8947 144.841 30.9385 149.95 31.8212L94.6136 4.3398L36.8668 9.94971H47.5098C47.6626 9.94971 47.8154 9.96674 47.9681 10.0092L97.9915 23.979Z" fill="black"/>
<path d="M74.1597 145.337L60.606 45.9692L97.6437 25.6425L74.1597 145.337Z" fill="white"/>
<path d="M74.1597 147.026C74.1427 147.026 74.1257 147.026 74.1087 147.026C73.277 147.001 72.5896 146.381 72.4792 145.558L58.9255 46.1898C58.8321 45.4939 59.1716 44.8149 59.7912 44.4754L96.8289 24.1487C97.406 23.8346 98.1106 23.8772 98.6453 24.2676C99.18 24.658 99.4344 25.32 99.3071 25.965L75.8231 145.651C75.6619 146.457 74.966 147.026 74.1597 147.026ZM62.4388 46.8943L74.4568 135.008L95.2844 28.8761L62.4388 46.8943Z" fill="black"/>
<path d="M111.64 164.756L74.1602 145.337L97.6441 25.6425L116.163 67.1957L124.294 136.298L111.64 164.756Z" fill="white"/>
<path d="M111.639 166.453C111.368 166.453 111.105 166.385 110.859 166.266L73.3708 146.848C72.7003 146.5 72.3438 145.753 72.4881 145.015L95.972 25.3285C96.1163 24.6071 96.7104 24.0553 97.4403 23.9704C98.1702 23.8856 98.8744 24.2929 99.18 24.9634L117.699 66.5168C117.767 66.6695 117.818 66.8391 117.835 67.0089L125.966 136.112C125.999 136.417 125.957 136.722 125.83 136.994L113.184 165.452C112.997 165.876 112.641 166.207 112.2 166.36C112.021 166.419 111.834 166.453 111.639 166.453ZM76.0611 144.412L110.825 162.422L122.554 136.035L114.508 67.6454L98.272 31.2185L76.0611 144.412Z" fill="black"/>
<path d="M89.9629 186.432L93.536 155.377L111.639 164.756L89.9629 186.432Z" fill="white"/>
<path d="M89.9632 188.129C89.717 188.129 89.4623 188.078 89.2247 187.96C88.5797 187.646 88.1979 186.958 88.2827 186.245L91.8558 155.182C91.9152 154.631 92.2547 154.138 92.7385 153.884C93.2223 153.629 93.8163 153.621 94.317 153.875L112.42 163.254C112.904 163.5 113.235 163.967 113.311 164.501C113.396 165.036 113.218 165.579 112.836 165.961L91.16 187.637C90.8375 187.96 90.4045 188.129 89.9632 188.129ZM94.9365 158.008L92.1952 181.798L108.805 165.189L94.9365 158.008Z" fill="black"/>
<path d="M108.932 195.921L111.639 164.756L124.294 136.298H149.127L108.932 195.921Z" fill="white"/>
<path d="M108.932 197.618C108.745 197.618 108.55 197.584 108.363 197.525C107.633 197.27 107.175 196.549 107.243 195.785L109.95 164.62C109.967 164.433 110.01 164.247 110.086 164.077L122.732 135.619C123.003 135.008 123.615 134.609 124.277 134.609H149.127C149.755 134.609 150.332 134.957 150.621 135.509C150.918 136.061 150.884 136.731 150.527 137.249L110.332 196.871C110.018 197.346 109.484 197.618 108.932 197.618ZM113.303 165.188L111.181 189.555L145.936 138.004H125.38L113.303 165.188Z" fill="black"/>
<path d="M229.076 54.5499H168.104L116.163 67.1957L149.127 136.298L229.076 54.5499Z" fill="white"/>
<path d="M149.127 137.996C149.034 137.996 148.94 137.987 148.847 137.97C148.304 137.877 147.837 137.529 147.6 137.028L114.627 67.9256C114.406 67.4673 114.406 66.9327 114.627 66.4659C114.848 66.0076 115.264 65.668 115.756 65.5492L167.697 52.9034C167.824 52.8694 167.96 52.8524 168.096 52.8524H229.068C229.747 52.8524 230.366 53.2598 230.629 53.8878C230.892 54.5159 230.757 55.2457 230.282 55.7295L150.341 137.478C150.019 137.817 149.586 137.996 149.127 137.996ZM118.59 68.35L149.62 133.387L225.053 56.2473H168.308L118.59 68.35Z" fill="black"/>
<path d="M124.294 136.298H149.127L116.163 67.1956L124.294 136.298Z" fill="white"/>
<path d="M149.127 137.996H124.285C123.428 137.996 122.706 137.351 122.604 136.502L114.474 67.3994C114.38 66.5761 114.89 65.8039 115.687 65.5747C116.485 65.3456 117.326 65.7275 117.682 66.4744L150.654 135.577C150.9 136.103 150.867 136.714 150.561 137.206C150.256 137.699 149.712 137.996 149.127 137.996ZM125.795 134.609H146.445L119.04 77.1596L125.795 134.609Z" fill="black"/>
<path d="M179.842 160.691L141.455 147.688L149.127 136.298L229.076 54.5499L179.842 160.691Z" fill="white"/>
<path d="M179.842 162.388C179.664 162.388 179.477 162.362 179.299 162.294L140.911 149.292C140.411 149.122 140.02 148.732 139.851 148.231C139.681 147.73 139.757 147.179 140.054 146.746L147.735 135.356C147.795 135.271 147.854 135.195 147.93 135.118L227.871 53.3699C228.448 52.7758 229.365 52.691 230.044 53.1577C230.723 53.6245 230.969 54.5159 230.621 55.2628L181.378 161.403C181.098 162.014 180.487 162.388 179.842 162.388ZM144.094 146.797L178.943 158.603L223.382 62.7908L150.443 137.376L144.094 146.797Z" fill="black"/>
<path d="M235.399 173.786L179.842 160.69L229.076 54.5498L280.109 136.298L235.399 173.786Z" fill="white"/>
<path d="M235.399 175.483C235.272 175.483 235.136 175.466 235.009 175.441L179.452 162.345C178.96 162.227 178.544 161.895 178.315 161.437C178.086 160.979 178.086 160.444 178.298 159.986L227.532 53.8452C227.795 53.2851 228.346 52.9032 228.966 52.8693C229.585 52.8353 230.18 53.1323 230.511 53.667L281.544 135.416C281.994 136.128 281.841 137.07 281.196 137.614L236.486 175.102C236.18 175.348 235.79 175.483 235.399 175.483ZM182.252 159.519L234.958 171.944L277.895 135.95L229.297 58.1058L182.252 159.519Z" fill="black"/>
<path d="M216.43 258.25L179.842 160.69L235.399 173.786V232.959L216.43 258.25Z" fill="white"/>
<path d="M216.43 259.939C216.354 259.939 216.269 259.931 216.193 259.922C215.582 259.838 215.064 259.422 214.844 258.845L178.255 161.285C178.034 160.699 178.153 160.037 178.569 159.57C178.985 159.103 179.622 158.9 180.233 159.044L235.79 172.14C236.553 172.318 237.097 173.005 237.097 173.786V232.95C237.097 233.315 236.978 233.672 236.757 233.969L217.788 259.26C217.457 259.693 216.957 259.939 216.43 259.939ZM182.541 163.067L216.923 254.762L233.702 232.399V175.136L182.541 163.067Z" fill="black"/>
<path d="M175.777 258.25H216.43L208.351 236.718L175.777 258.25Z" fill="white"/>
<path d="M216.43 259.939H175.776C175.03 259.939 174.368 259.447 174.156 258.734C173.944 258.021 174.223 257.249 174.843 256.833L207.417 235.301C207.85 235.012 208.384 234.945 208.876 235.106C209.369 235.267 209.759 235.641 209.937 236.124L218.009 257.656C218.204 258.174 218.128 258.76 217.814 259.218C217.508 259.668 216.982 259.939 216.43 259.939ZM181.412 256.553H213.986L207.518 239.298L181.412 256.553Z" fill="black"/>
<path d="M490.133 114.172L280.109 136.298L229.076 54.5499L490.133 114.172Z" fill="white"/>
<path d="M280.11 137.996C279.533 137.996 278.981 137.699 278.675 137.198L227.642 55.4495C227.277 54.8724 227.303 54.1255 227.701 53.5738C228.1 53.0137 228.788 52.7506 229.458 52.9033L490.515 112.526C491.322 112.712 491.882 113.451 491.831 114.274C491.78 115.097 491.143 115.768 490.32 115.861L280.296 137.996C280.228 137.996 280.169 137.996 280.11 137.996ZM232.667 57.1129L280.984 134.507L479.822 113.553L232.667 57.1129Z" fill="black"/>
</svg>
